<!DOCTYPE svg PUBLIC "-//W3C//DTD SVG 20010904//EN" "http://www.w3.org/TR/2001/REC-SVG-20010904/DTD/svg10.dtd">
<svg version="1.0" xmlns="http://www.w3.org/2000/svg" width="17px" height="15px" viewBox="0 0 170 150" preserveAspectRatio="xMidYMid meet">
<g id="layer101" fill="#dddddd" stroke="none">
 <path d="M0 120 c0 -31 16 -41 26 -15 4 11 21 15 59 15 38 0 55 -4 59 -15 10 -26 26 -16 26 15 l0 30 -85 0 -85 0 0 -30z"/>
 <path d="M57 84 c-28 -24 -29 -44 -1 -44 8 0 14 -9 14 -20 0 -11 7 -20 15 -20 8 0 15 8 15 19 0 10 9 21 20 24 27 7 24 18 -8 43 l-28 22 -27 -24z"/>
 </g>

</svg>